<?xml version="1.0" ?><!-- Uploaded to: SVG Repo, www.svgrepo.com, Generator: SVG Repo Mixer Tools -->
<svg fill="#000000" width="800px" height="800px" viewBox="0 0 96 96" data-name="Your Icons" id="Your_Icons" xmlns="http://www.w3.org/2000/svg"><title/><path d="M46.45,15l-1.06-.38a23.74,23.74,0,0,1-3-1.31c-2.11-1.11-4-4.53-4.24-4.92L37.3,6.82,39,6.39a8.22,8.22,0,0,1,6.18,1.43A4.53,4.53,0,0,1,47,14Zm-6-6.7a10.42,10.42,0,0,0,2.9,3.24,20.74,20.74,0,0,0,2.18,1,2.56,2.56,0,0,0-1.39-3A7.2,7.2,0,0,0,40.41,8.26Z"/><path d="M49.62,15l-.56-1A4.55,4.55,0,0,1,50.9,7.82a8.22,8.22,0,0,1,6.18-1.43l1.7.43-.84,1.53c-.22.39-2.13,3.81-4.24,4.92a25.64,25.64,0,0,1-3,1.31Zm6.05-6.7A7.2,7.2,0,0,0,52,9.51a2.55,2.55,0,0,0-1.39,3,21.7,21.7,0,0,0,2.18-1A10.42,10.42,0,0,0,55.67,8.26Z"/><path d="M15.26,19.44l-1.06-.38a24.8,24.8,0,0,1-3-1.31c-2.11-1.11-4-4.53-4.24-4.92L6.11,11.3l1.69-.44A8.25,8.25,0,0,1,14,12.3a4.5,4.5,0,0,1,1.84,6.18Zm-6-6.71A10.23,10.23,0,0,0,12.12,16a21.7,21.7,0,0,0,2.18,1c.2-.7.23-1.93-1.4-3A7.34,7.34,0,0,0,9.22,12.73Z"/><path d="M18.29,19.44l-.56-1a4.53,4.53,0,0,1,1.84-6.17,8.28,8.28,0,0,1,6.17-1.44l1.71.44-.85,1.53c-.21.39-2.13,3.81-4.23,4.92a29.11,29.11,0,0,1-3,1.31Zm6-6.71A7.4,7.4,0,0,0,20.65,14a2.59,2.59,0,0,0-1.4,3,22,22,0,0,0,2.18-1A10.12,10.12,0,0,0,24.33,12.73Z"/><path d="M78,19.22,77,18.84a25.41,25.41,0,0,1-3-1.31c-2-1.07-3.88-4.28-4.23-4.91l-.84-1.54,1.69-.43a8.21,8.21,0,0,1,6.18,1.43,4.53,4.53,0,0,1,1.84,6.17Zm-6-6.7a10,10,0,0,0,2.9,3.24,20.74,20.74,0,0,0,2.18,1,2.56,2.56,0,0,0-1.4-3A7.2,7.2,0,0,0,72,12.52Z"/><path d="M80.81,19.22l-.57-1a4.55,4.55,0,0,1,1.85-6.17,8.28,8.28,0,0,1,6.17-1.44l1.7.44-.84,1.53c-.21.39-2.13,3.81-4.24,4.92a24.45,24.45,0,0,1-3,1.31Zm6-6.7a7.23,7.23,0,0,0-3.69,1.25,2.55,2.55,0,0,0-1.39,3,20.74,20.74,0,0,0,2.18-1A10.3,10.3,0,0,0,86.85,12.52Z"/><path d="M25.25,52.6l-16.87-12V19.75H25.25Zm-14.87-13,12.87,9.13v-27H10.38Z"/><path d="M92,92H4V35.06L28.77,52.65l19.23-9,19.25,9L92,36.66ZM6,90H90V40.34L67.41,54.94,48,45.85,28.57,55,6,38.94Z"/><path d="M71.12,52.54V19.75H88V41.63Zm2-30.79V48.86L86,40.54V21.75Z"/><path d="M62.88,92a1,1,0,0,1-1-1V78.63H34.13V91a1,1,0,0,1-2,0V76.63H63.88V91A1,1,0,0,1,62.88,92Z"/><path d="M67.88,92h-10V82.63H38.13V92h-10V72.63H67.88Zm-8-2h6V74.63H30.13V90h6V80.63H59.88Z"/><path d="M40.61,49.1a1,1,0,0,1-1-1V15.25h17L56.88,48a1,1,0,0,1-1,1h0a1,1,0,0,1-1-1l-.21-30.74H41.61V48.1A1,1,0,0,1,40.61,49.1Z"/><path d="M24.25,29H9.38a1,1,0,0,1,0-2H24.25a1,1,0,0,1,0,2Z"/><path d="M24.25,34.5H9.38a1,1,0,0,1,0-2H24.25a1,1,0,0,1,0,2Z"/><path d="M55.62,29.25H40.75a1,1,0,0,1,0-2H55.62a1,1,0,1,1,0,2Z"/><path d="M55.62,34.75H40.75a1,1,0,0,1,0-2H55.62a1,1,0,1,1,0,2Z"/><path d="M87,29.25H72.13a1,1,0,0,1,0-2H87a1,1,0,0,1,0,2Z"/><path d="M87,34.75H72.13a1,1,0,0,1,0-2H87a1,1,0,0,1,0,2Z"/><path d="M91,66.88H5a1,1,0,0,1,0-2H91a1,1,0,0,1,0,2Z"/><path d="M28.67,66.88a1,1,0,0,1-1-1V53.8a1,1,0,0,1,2,0V65.88A1,1,0,0,1,28.67,66.88Z"/><path d="M67.33,66.88a1,1,0,0,1-1-1V53.8a1,1,0,0,1,2,0V65.88A1,1,0,0,1,67.33,66.88Z"/></svg>